HIERARCHY
ROOT Hips
{
	OFFSET 0.000000 0.000000 0.000000
	CHANNELS 6 Xposition Yposition Zposition Xrotation Yrotation Zrotation
	JOINT LeftUpLeg_virtual
	{
		OFFSET 0.000000 0.000000 0.000000
		CHANNELS 3 Xrotation Yrotation Zrotation
		JOINT LeftUpLeg
		{
			OFFSET 13.026900 -6.336304 -1.092800
			CHANNELS 3 Xrotation Yrotation Zrotation
			JOINT LeftLeg
			{
				OFFSET 0.524474 -46.096886 9.782700
				CHANNELS 3 Xrotation Yrotation Zrotation
				JOINT LeftFoot
				{
					OFFSET -0.524474 -53.427422 -12.948200
					CHANNELS 3 Xrotation Yrotation Zrotation
					JOINT LeftToeBase
					{
						OFFSET 0.192200 -14.009700 16.364100
						CHANNELS 3 Xrotation Yrotation Zrotation
						JOINT LeftToe_End
						{
							OFFSET -1.784700 -0.561700 9.474800
							CHANNELS 3 Xrotation Yrotation Zrotation
							End Site
							{
								OFFSET 0 0 0
							}
						}
					}
				}
			}
		}
	}
	JOINT RightUpLeg_virtual
	{
		OFFSET 0.000000 0.000000 0.000000
		CHANNELS 3 Xrotation Yrotation Zrotation
		JOINT RightUpLeg
		{
			OFFSET -12.883000 -6.336304 -1.092800
			CHANNELS 3 Xrotation Yrotation Zrotation
			JOINT RightLeg
			{
				OFFSET -0.524587 -46.096825 9.782800
				CHANNELS 3 Xrotation Yrotation Zrotation
				JOINT RightFoot
				{
					OFFSET 0.524587 -53.427383 -12.948300
					CHANNELS 3 Xrotation Yrotation Zrotation
					JOINT RightToeBase
					{
						OFFSET -0.192200 -14.009700 16.364100
						CHANNELS 3 Xrotation Yrotation Zrotation
						JOINT RightToe_End
						{
							OFFSET 1.784700 -0.561700 9.474800
							CHANNELS 3 Xrotation Yrotation Zrotation
							End Site
							{
								OFFSET 0 0 0
							}
						}
					}
				}
			}
		}
	}
	JOINT Spine_virtual
	{
		OFFSET 0.000000 0.000000 0.000000
		CHANNELS 3 Xrotation Yrotation Zrotation
		JOINT Spine
		{
			OFFSET 0.072000 7.257294 -0.789700
			CHANNELS 3 Xrotation Yrotation Zrotation
			JOINT Spine1
			{
				OFFSET 0.000000 12.508769 -0.658067
				CHANNELS 3 Xrotation Yrotation Zrotation
				JOINT Spine1_split
				{
					OFFSET 0.000000 12.508769 -0.658067
					CHANNELS 3 Xrotation Yrotation Zrotation
					JOINT Spine2
					{
						OFFSET 0.000000 12.508769 -0.658067
						CHANNELS 3 Xrotation Yrotation Zrotation
						JOINT Neck_virtual
						{
							OFFSET 0.000000 0.000000 0.000000
							CHANNELS 3 Xrotation Yrotation Zrotation
							JOINT Neck
							{
								OFFSET 0.000000 14.033295 7.520400
								CHANNELS 3 Xrotation Yrotation Zrotation
								JOINT Head
								{
									OFFSET 0.000000 8.198502 5.703100
									CHANNELS 3 Xrotation Yrotation Zrotation
									JOINT HeadTop_End
									{
										OFFSET 0.000000 17.760803 13.332701
										CHANNELS 3 Xrotation Yrotation Zrotation
										End Site
										{
											OFFSET 0 0 0
										}
									}
								}
							}
						}
						JOINT LeftShoulder_virtual
						{
							OFFSET 0.000000 0.000000 0.000000
							CHANNELS 3 Xrotation Yrotation Zrotation
							JOINT LeftShoulder
							{
								OFFSET 6.292450 5.785301 -0.669000
								CHANNELS 3 Xrotation Yrotation Zrotation
								JOINT LeftShoulder_split
								{
									OFFSET 6.292450 5.785301 -0.669000
									CHANNELS 3 Xrotation Yrotation Zrotation
									JOINT LeftArm
									{
										OFFSET 13.907140 -6.093903 1.965100
										CHANNELS 3 Xrotation Yrotation Zrotation
										JOINT LeftForeArm
										{
											OFFSET 34.140198 0.000000 0.000000
											CHANNELS 3 Xrotation Yrotation Zrotation
											JOINT LeftHand
											{
												OFFSET 40.960209 0.000000 0.000000
												CHANNELS 3 Xrotation Yrotation Zrotation
												End Site
												{
													OFFSET 0 0 0
												}
											}
										}
									}
								}
							}
						}
						JOINT RightShoulder_virtual
						{
							OFFSET 0.000000 0.000000 0.000000
							CHANNELS 3 Xrotation Yrotation Zrotation
							JOINT RightShoulder
							{
								OFFSET -6.292450 5.785301 -0.669000
								CHANNELS 3 Xrotation Yrotation Zrotation
								JOINT RightShoulder_split
								{
									OFFSET -6.292450 5.785301 -0.669000
									CHANNELS 3 Xrotation Yrotation Zrotation
									JOINT RightArm
									{
										OFFSET -13.907140 -6.093903 1.965100
										CHANNELS 3 Xrotation Yrotation Zrotation
										JOINT RightForeArm
										{
											OFFSET -34.140198 0.000000 0.000000
											CHANNELS 3 Xrotation Yrotation Zrotation
											JOINT RightHand
											{
												OFFSET -40.960209 0.000000 0.000000
												CHANNELS 3 Xrotation Yrotation Zrotation
												End Site
												{
													OFFSET 0 0 0
												}
											}
										}
									}
								}
							}
						}
					}
				}
			}
		}
	}
}
MOTION
Frames: 6
Frame Time: 0.03333333
29.716269 106.298187 7.314667 0.000000 0.000000 0.000000 153.249719 -65.553348 159.352275 -58.443149 43.280962 53.718495 35.409545 -9.333477 -4.861957 7.802256 8.354228 -1.828830 -0.573380 10.387377 -7.824576 0.000000 0.000000 0.000000 153.249719 -65.553348 159.352275 -43.352963 -13.730097 -29.765261 40.856870 -5.839110 4.995239 -7.276723 -3.549626 10.336080 0.256329 3.594933 0.539485 0.000000 0.000000 0.000000 153.249719 -65.553348 159.352275 10.202340 -3.108739 1.728628 5.594164 -2.094860 -3.359658 0.000000 0.000000 0.000000 0.000000 0.000000 0.000000 -2.700241 -5.751646 -2.457626 5.960704 13.000325 -0.823832 -12.418851 14.211457 -5.161943 0.000000 0.000000 0.000000 -2.700241 -5.751646 -2.457626 -1.834004 -14.481784 -4.299964 0.000000 0.000000 0.000000 -24.381451 -9.040969 -46.978506 -13.755367 -26.190193 -17.461285 0.000000 0.000000 0.000000 -2.700241 -5.751646 -2.457626 -5.501591 24.551945 2.033922 0.000000 0.000000 0.000000 -13.771485 -20.784076 57.987937 12.671193 34.917191 -3.619607 0.000000 0.000000 0.000000 
29.836868 106.108742 5.817345 0.000000 0.000000 0.000000 154.702214 -62.751912 161.045137 -61.364598 42.329233 56.165851 36.018231 -12.993143 -4.411219 10.667264 6.868196 1.561248 -0.203517 12.587401 -10.666442 0.000000 0.000000 0.000000 154.702214 -62.751912 161.045137 -44.468384 -13.292781 -28.400464 41.704647 -5.121158 5.202132 -8.346326 -2.403372 8.988834 0.957912 3.691112 0.220891 0.000000 0.000000 0.000000 154.702214 -62.751912 161.045137 10.456163 -3.120715 1.644785 5.299429 -1.863429 -3.688208 0.000000 0.000000 0.000000 0.000000 0.000000 0.000000 -3.740329 -4.710125 -2.529082 6.087833 13.825683 -1.303473 -12.333074 14.943274 -5.101975 0.000000 0.000000 0.000000 -3.740329 -4.710125 -2.529082 -1.833830 -14.445314 -4.259440 0.000000 0.000000 0.000000 -24.484054 -9.447719 -47.266760 -14.703155 -28.284797 -17.623242 0.000000 0.000000 0.000000 -3.740329 -4.710125 -2.529082 -5.518096 24.192595 2.050979 0.000000 0.000000 0.000000 -13.471643 -20.142013 57.616628 14.645621 34.292508 -4.668573 0.000000 0.000000 0.000000 
29.811806 105.907272 4.268044 0.000000 0.000000 0.000000 155.876788 -60.188699 162.645273 -63.540335 41.344679 57.605494 36.091321 -16.033319 -3.888737 13.097571 5.446376 4.613595 1.086192 13.678899 -12.987553 0.000000 0.000000 0.000000 155.876788 -60.188699 162.645273 -45.345800 -12.775133 -27.193865 42.612905 -4.511197 5.254503 -9.478003 -1.365846 7.902251 1.545056 3.776565 -0.003043 0.000000 0.000000 0.000000 155.876788 -60.188699 162.645273 10.535180 -3.104090 1.465759 5.077497 -1.603200 -4.097638 0.000000 0.000000 0.000000 0.000000 0.000000 0.000000 -4.749401 -3.642999 -2.662462 6.469084 14.668540 -1.949848 -12.456452 15.384861 -4.709117 0.000000 0.000000 0.000000 -4.749401 -3.642999 -2.662462 -1.822002 -14.611923 -4.119284 0.000000 0.000000 0.000000 -24.396500 -9.365105 -47.588011 -15.736298 -30.089934 -17.677868 0.000000 0.000000 0.000000 -4.749401 -3.642999 -2.662462 -5.569919 24.018596 2.202752 0.000000 0.000000 0.000000 -12.836173 -20.262262 57.156430 16.241546 34.139611 -5.554873 0.000000 0.000000 0.000000 
29.574024 105.747437 2.785412 0.000000 0.000000 0.000000 156.868873 -57.908113 164.188691 -64.649762 40.370827 57.930748 35.596846 -18.213480 -3.474585 14.790221 4.151862 6.989106 3.046993 13.429514 -14.524624 0.000000 0.000000 0.000000 156.868873 -57.908113 164.188691 -45.903820 -12.224025 -26.202054 43.427654 -3.981925 5.167056 -10.601151 -0.451735 7.122044 1.994155 3.836679 -0.078554 0.000000 0.000000 0.000000 156.868873 -57.908113 164.188691 10.564334 -3.144186 1.252752 5.040221 -1.410213 -4.541929 0.000000 0.000000 0.000000 0.000000 0.000000 0.000000 -5.600358 -2.671739 -2.845728 6.274320 15.581886 -2.810558 -12.220506 15.590860 -3.903970 0.000000 0.000000 0.000000 -5.600358 -2.671739 -2.845728 -1.827874 -14.708442 -4.103368 0.000000 0.000000 0.000000 -23.999883 -9.023754 -47.692363 -16.439702 -32.034243 -17.488025 0.000000 0.000000 0.000000 -5.600358 -2.671739 -2.845728 -5.560450 23.921585 2.133796 0.000000 0.000000 0.000000 -12.147544 -20.685778 56.766132 17.444320 34.055569 -6.200103 0.000000 0.000000 0.000000 
29.113300 105.663460 1.471764 0.000000 0.000000 0.000000 157.684875 -55.880810 165.528569 -64.449938 39.085348 57.110309 34.676078 -19.351437 -3.284569 15.753112 3.470283 8.180985 4.952069 11.633831 -14.841911 0.000000 0.000000 0.000000 157.684875 -55.880810 165.528569 -46.152978 -11.798621 -25.438626 43.989270 -3.425863 5.055362 -11.627449 0.377620 6.576285 2.387070 3.852155 -0.094580 0.000000 0.000000 0.000000 157.684875 -55.880810 165.528569 10.596085 -3.216955 1.020251 5.106885 -1.309855 -5.012079 0.000000 0.000000 0.000000 0.000000 0.000000 0.000000 -6.354616 -1.815762 -3.053544 6.289969 16.431138 -3.692618 -12.135137 15.762702 -3.095052 0.000000 0.000000 0.000000 -6.354616 -1.815762 -3.053544 -1.834970 -14.838497 -4.138141 0.000000 0.000000 0.000000 -23.186616 -8.118588 -47.529562 -17.069855 -34.052543 -17.295789 0.000000 0.000000 0.000000 -6.354616 -1.815762 -3.053544 -5.564479 24.161869 2.036934 0.000000 0.000000 0.000000 -11.309827 -21.742495 56.222607 18.191536 34.274405 -6.642627 0.000000 0.000000 0.000000 
28.128956 105.496796 0.305714 0.000000 0.000000 0.000000 158.349890 -54.117764 166.514343 -63.498650 36.034452 54.475564 35.314684 -20.029338 -3.060907 13.031404 2.788840 9.000383 7.742505 4.368493 -11.614266 0.000000 0.000000 0.000000 158.349890 -54.117764 166.514343 -46.001430 -11.339754 -24.813201 44.541422 -2.912099 4.890363 -12.762237 1.009200 6.503485 2.704642 3.785373 -0.105506 0.000000 0.000000 0.000000 158.349890 -54.117764 166.514343 10.614498 -3.213216 0.878575 5.159220 -1.188759 -5.491707 0.000000 0.000000 0.000000 0.000000 0.000000 0.000000 -7.116280 -0.975473 -3.255047 6.337741 17.094876 -4.461804 -11.736901 15.828506 -2.393444 0.000000 0.000000 0.000000 -7.116280 -0.975473 -3.255047 -1.864056 -14.902867 -4.396398 0.000000 0.000000 0.000000 -22.016196 -6.677217 -47.278037 -17.732240 -36.101723 -17.267097 0.000000 0.000000 0.000000 -7.116280 -0.975473 -3.255047 -5.560107 24.080114 1.939096 0.000000 0.000000 0.000000 -10.250444 -22.599872 55.639138 18.195276 34.178198 -6.692055 0.000000 0.000000 0.000000 
